# xmcd
#
# Track frame offsets: 
#        150
#        22207
#        41740
#
# Disc length: 846 seconds
#
# Revision: 24
# Processed by: cddbd v1.5.2PL0 Copyright (c) Steve Scherf et al.
# Submitted via: ExactAudioCopyFreeDBPlugin 1.0
#
DISCID=23034c03
DTITLE=モーニング娘。 - 恋愛レボリューション21
DYEAR=2000
DGENRE=JPop
TTITLE0=恋愛レボリューション21
TTITLE1=インスピレーション！
TTITLE2=恋愛レボリューション21（Instrumental）
EXTD=
EXTT0=
EXTT1=
EXTT2=
PLAYORDER=
